<?xml version="1.0" standalone="no"?><!DOCTYPE svg PUBLIC "-//W3C//DTD SVG 1.1//EN" "http://www.w3.org/Graphics/SVG/1.1/DTD/svg11.dtd"><svg t="1665028306911" class="icon" viewBox="0 0 1024 1024" version="1.1" xmlns="http://www.w3.org/2000/svg" p-id="2283" xmlns:xlink="http://www.w3.org/1999/xlink" width="200" height="200"><path d="M512 953.81818174c244.02272695 0 441.81818174-197.79545479 441.81818174-441.81818174C953.81818174 267.97727305 756.02272695 70.18181826 512 70.18181826 267.97727305 70.18181826 70.18181826 267.97727305 70.18181826 512c0 244.02272695 197.79545479 441.81818174 441.81818174 441.81818174z m0-65.45454522a376.36363653 376.36363653 0 1 1 0-752.72727305 376.36363653 376.36363653 0 0 1 0 752.72727305z" p-id="2284"></path><path d="M544.72727305 590.83181826v-5.56363652a90 90 0 0 1 41.1954539-75.64090869C638.69545479 475.59090869 667.45454521 435.5 667.45454521 389.27272695a155.45454521 155.45454521 0 0 0-310.90909042 0 32.72727305 32.72727305 0 1 0 65.45454521 0 90 90 0 1 1 180 0c0 20.37272695-15.62727305 42.17727305-51.54545479 65.37272784a155.45454521 155.45454521 0 0 0-71.18181826 130.62272695v5.56363652a32.72727305 32.72727305 0 1 0 65.4545461 0z" p-id="2285"></path><path d="M512 716.54545479m-40.90909131 0a40.90909131 40.90909131 0 1 0 81.81818262 0 40.90909131 40.90909131 0 1 0-81.81818262 0Z" p-id="2286"></path></svg>